<?xml version="1.0" standalone="no"?>
<!DOCTYPE svg PUBLIC "-//W3C//DTD SVG 20010904//EN"
 "http://www.w3.org/TR/2001/REC-SVG-20010904/DTD/svg10.dtd">
<svg version="1.0" xmlns="http://www.w3.org/2000/svg"
 width="1105.000000pt" height="223.000000pt" viewBox="0 0 1105.000000 223.000000"
 preserveAspectRatio="xMidYMid meet">

<g transform="translate(0.000000,223.000000) scale(0.100000,-0.100000)"
fill="#000000" stroke="none">
<path d="M870 2071 c0 -4 -33 -11 -72 -15 -81 -7 -228 -45 -228 -58 0 -4 -7
-8 -15 -8 -8 0 -15 -4 -15 -8 0 -5 -22 -18 -50 -30 -27 -12 -50 -26 -50 -31 0
-5 -8 -12 -17 -16 -10 -3 -45 -30 -78 -60 -33 -30 -63 -55 -66 -55 -4 0 -10
-11 -13 -25 -3 -13 -15 -29 -26 -35 -11 -6 -20 -17 -20 -24 0 -8 -11 -24 -25
-37 -13 -13 -25 -31 -25 -40 0 -9 -9 -26 -19 -38 -10 -12 -22 -37 -25 -56 -4
-19 -10 -35 -14 -35 -11 0 -30 -77 -38 -154 -4 -36 -11 -66 -15 -66 -12 0 -11
-146 0 -168 5 -9 16 -62 25 -117 9 -54 20 -102 25 -105 4 -3 14 -22 20 -42 7
-21 17 -38 22 -38 5 0 9 -8 9 -18 0 -10 8 -27 18 -38 19 -23 39 -52 49 -74 7
-14 60 -75 93 -106 59 -56 93 -84 100 -84 4 0 13 -6 19 -13 6 -8 28 -19 50
-25 22 -7 41 -20 43 -30 4 -13 30 -24 99 -41 52 -14 96 -28 99 -32 3 -4 54
-13 113 -19 112 -12 318 1 325 21 2 5 11 9 19 9 29 0 173 53 173 64 1 6 29 24
63 41 34 16 78 46 98 67 19 21 41 38 47 38 7 0 12 5 12 11 0 6 17 27 38 47 21
20 44 49 52 65 7 15 17 27 20 27 4 0 13 15 21 33 7 17 15 34 18 37 12 10 41
81 41 100 0 10 5 20 10 22 6 2 16 30 22 63 7 33 17 63 23 67 13 9 12 307 -1
316 -5 4 -16 36 -23 72 -7 36 -17 67 -22 68 -5 2 -9 9 -9 15 0 19 -69 156 -91
180 -11 12 -26 29 -34 37 -7 8 -19 27 -25 41 -7 14 -29 37 -51 50 -21 13 -41
31 -44 41 -3 9 -21 23 -40 33 -19 9 -35 20 -35 25 0 5 -22 19 -50 31 -27 12
-50 25 -50 30 0 5 -6 9 -14 9 -8 0 -16 4 -18 8 -5 14 -110 43 -195 55 -46 6
-83 15 -83 19 0 4 -38 8 -85 8 -47 0 -85 -4 -85 -9z m271 -31 c76 -14 139 -33
139 -42 0 -4 7 -8 15 -8 8 0 15 -4 15 -9 0 -5 22 -17 50 -26 27 -9 53 -22 57
-28 5 -7 22 -20 40 -30 17 -9 55 -40 83 -67 29 -28 55 -50 59 -50 4 0 13 -12
20 -27 7 -16 19 -35 27 -43 47 -51 64 -75 64 -90 0 -9 9 -27 19 -39 11 -12 25
-45 32 -74 6 -29 16 -55 21 -58 11 -7 28 -110 28 -169 0 -26 6 -52 13 -59 10
-11 10 -14 0 -18 -9 -3 -13 -26 -13 -66 0 -74 -18 -189 -30 -197 -5 -3 -11
-19 -15 -35 -10 -46 -27 -85 -35 -85 -5 0 -11 -14 -15 -31 -4 -17 -13 -33 -21
-36 -8 -3 -14 -10 -14 -17 0 -6 -13 -26 -30 -44 -16 -18 -30 -39 -30 -46 0 -8
-15 -24 -34 -36 -18 -13 -42 -36 -52 -52 -10 -15 -24 -28 -30 -28 -5 0 -19 -9
-31 -19 -24 -23 -113 -71 -130 -71 -7 0 -13 -7 -13 -15 0 -9 -21 -20 -57 -30
-32 -9 -71 -21 -87 -26 -16 -5 -41 -9 -57 -9 -15 0 -29 -5 -31 -11 -5 -14
-257 -16 -266 -2 -4 5 -19 13 -34 16 -46 12 -128 52 -128 63 0 6 -20 28 -45
49 -24 22 -49 52 -56 67 -6 15 -15 28 -19 28 -14 0 -31 77 -37 165 -4 67 -1
106 11 153 17 62 22 72 59 113 9 10 17 24 17 31 0 15 59 69 96 88 16 8 33 21
37 27 4 7 16 13 27 13 10 0 25 7 34 15 10 10 52 18 133 25 120 10 223 33 223
50 0 6 6 10 14 10 8 0 16 7 20 15 3 8 11 15 19 15 7 0 23 11 34 23 11 13 29
30 39 38 11 8 28 33 38 57 11 23 22 42 27 42 13 0 29 99 29 183 -1 99 -14 161
-40 190 -11 11 -20 29 -20 38 0 10 -6 22 -14 26 -7 4 -18 17 -24 28 -6 12 -23
27 -39 35 -15 8 -40 27 -55 42 -15 15 -47 32 -70 38 -24 6 -47 13 -53 15 -21
8 35 5 86 -5z m-126 -284 c13 -13 34 -31 46 -40 18 -12 24 -28 27 -77 3 -46 1
-65 -9 -73 -8 -6 -20 -23 -28 -38 -17 -34 -91 -54 -144 -40 -38 11 -87 49 -87
68 0 7 -6 14 -12 17 -16 5 -16 105 -1 115 5 4 15 17 22 30 6 12 17 22 24 22 7
0 19 9 27 20 22 31 103 28 135 -4z"/>
<path d="M875 890 c-3 -11 -13 -20 -21 -20 -8 0 -20 -11 -26 -25 -6 -14 -15
-25 -20 -25 -16 0 -9 -99 10 -121 40 -49 63 -68 92 -74 43 -9 128 12 135 35 3
10 14 28 25 40 14 16 20 38 20 72 0 40 -5 52 -26 71 -15 12 -37 32 -50 45 -32
31 -129 33 -139 2z"/>
<path d="M2325 1884 c-166 -17 -254 -43 -295 -91 -43 -48 -38 -79 18 -116 80
-54 77 -38 77 -427 0 -395 -6 -440 -59 -466 -76 -39 -95 -87 -56 -136 38 -49
166 -78 333 -78 222 1 347 49 347 133 0 30 -7 41 -44 72 -54 44 -66 85 -66
218 0 134 5 139 143 145 73 3 111 1 121 -7 21 -17 27 -86 16 -181 -14 -125
-24 -153 -67 -181 -69 -45 -66 -122 7 -159 80 -41 361 -52 508 -20 135 30 165
137 54 194 -18 9 -32 26 -36 43 -21 88 -13 750 9 806 4 10 21 25 37 33 49 26
68 51 68 92 0 53 -37 87 -119 108 -52 13 -102 15 -255 12 -176 -3 -195 -5
-239 -27 -54 -26 -80 -66 -75 -114 2 -24 13 -38 45 -60 51 -34 62 -65 65 -195
2 -63 -1 -95 -10 -104 -8 -8 -47 -12 -122 -13 -142 0 -145 3 -144 123 2 116
15 153 65 186 95 64 64 169 -58 194 -57 12 -212 21 -268 16z"/>
<path d="M3840 1492 c-148 -42 -229 -96 -267 -179 -21 -46 -23 -57 -13 -88 14
-42 52 -65 110 -65 59 0 105 25 153 83 23 28 57 66 74 85 l33 35 20 -24 c11
-13 24 -40 30 -59 13 -46 13 -147 -1 -156 -6 -3 -54 -10 -107 -14 -108 -9
-162 -19 -162 -29 0 -4 -17 -15 -39 -24 -56 -25 -126 -90 -150 -140 -48 -100
-12 -231 82 -294 107 -72 292 -70 408 3 l39 24 45 -34 c102 -78 272 -53 369
54 45 50 59 85 51 127 -5 26 -12 34 -38 41 -53 13 -60 43 -63 242 -4 222 -14
271 -72 328 -24 24 -69 55 -100 70 -52 24 -70 27 -197 29 -111 2 -153 -1 -205
-15z m151 -539 c12 -31 5 -124 -12 -155 -18 -33 -52 -19 -67 27 -17 50 -9 95
23 129 31 33 43 33 56 -1z"/>
<path d="M4800 1481 c-129 -34 -167 -50 -202 -86 -51 -51 -36 -106 40 -147 43
-23 47 -59 34 -262 l-11 -168 -50 -47 c-43 -40 -51 -53 -51 -83 0 -28 7 -42
29 -61 48 -40 118 -52 311 -52 234 0 285 8 327 50 57 57 36 129 -45 153 -65
20 -67 26 -70 215 -2 103 0 173 6 179 7 7 28 -4 61 -30 76 -60 179 -69 269
-23 48 24 66 45 93 105 40 92 5 214 -77 262 -33 20 -55 24 -118 24 -91 0 -137
-19 -188 -80 -34 -39 -48 -42 -48 -11 0 9 -5 33 -11 54 l-10 37 -92 0 c-68 -1
-119 -8 -197 -29z"/>
<path d="M5905 1499 c-22 -5 -87 -23 -144 -41 -171 -53 -209 -109 -132 -193
49 -53 57 -102 47 -289 -9 -172 -16 -198 -65 -251 -47 -51 -49 -62 -20 -98 31
-40 86 -51 259 -51 168 -1 250 15 285 54 23 25 32 25 40 1 10 -33 79 -52 209
-58 197 -9 311 17 346 80 14 25 13 30 -19 89 l-35 63 0 185 c-1 164 1 188 17
212 11 15 28 30 38 33 27 9 67 -19 76 -53 5 -15 8 -111 8 -213 l0 -185 -27
-42 c-57 -85 -27 -130 104 -158 95 -21 293 -14 356 11 46 19 82 57 82 87 0 11
-15 40 -32 65 l-33 45 0 267 c0 303 -4 322 -83 393 -54 49 -104 61 -227 56
-111 -5 -143 -16 -233 -87 l-51 -41 -30 44 c-45 65 -96 86 -209 86 -116 0
-178 -22 -255 -91 -31 -28 -58 -47 -58 -42 -1 4 -3 29 -4 55 -4 70 -15 78 -99
77 -39 -1 -89 -5 -111 -10z m295 -269 c10 -5 26 -30 35 -54 15 -38 17 -73 13
-219 l-3 -174 -35 -41 c-19 -22 -40 -41 -45 -41 -6 -1 -19 18 -30 42 -16 34
-20 69 -23 185 -4 174 8 270 39 295 25 20 25 20 49 7z"/>
<path d="M7775 1491 c-71 -20 -168 -71 -210 -109 -61 -56 -125 -153 -146 -223
-28 -93 -23 -245 10 -332 29 -73 114 -163 191 -200 120 -58 315 -72 460 -33
150 42 286 149 348 275 35 73 37 80 36 176 -1 117 -22 183 -84 267 -76 104
-149 156 -254 184 -74 20 -275 17 -351 -5z m154 -225 c64 -68 117 -369 78
-446 -17 -34 -60 -39 -81 -8 -46 64 -101 333 -85 408 7 31 39 70 58 70 4 0 17
-11 30 -24z"/>
<path d="M8840 1494 c-127 -34 -270 -87 -294 -109 -41 -38 -35 -72 24 -126
l50 -46 -1 -164 c-1 -238 -7 -271 -52 -313 -63 -57 -40 -119 54 -148 59 -17
327 -17 396 1 108 27 125 67 72 167 l-31 59 4 175 c4 191 15 234 62 246 65 16
97 -45 104 -201 7 -159 -10 -267 -48 -313 -48 -58 -34 -108 38 -134 50 -18
369 -17 432 1 97 27 115 83 54 158 l-37 45 -8 191 c-14 341 -23 383 -96 453
-57 56 -114 74 -227 74 -111 0 -155 -18 -213 -84 -22 -25 -46 -46 -52 -46 -6
0 -11 18 -11 43 0 23 -7 53 -16 65 -13 19 -24 22 -82 21 -37 0 -92 -7 -122
-15z"/>
<path d="M9932 1495 c-83 -15 -148 -52 -158 -89 -11 -46 13 -89 68 -121 57
-34 67 -51 172 -280 35 -77 90 -196 122 -265 63 -138 79 -217 50 -255 -23 -31
-48 -8 -64 58 -11 42 -23 65 -48 87 -32 28 -41 30 -109 30 -65 0 -77 -3 -105
-26 -83 -71 -90 -200 -14 -283 19 -21 48 -44 64 -51 17 -7 30 -16 30 -20 0
-12 92 -30 149 -30 58 0 153 17 160 29 4 4 26 18 50 31 56 28 132 99 170 158
36 57 88 181 151 362 117 331 158 427 196 462 11 9 38 24 60 33 80 32 95 111
31 159 -24 18 -46 22 -140 24 -131 5 -204 -9 -242 -44 -24 -22 -27 -31 -23
-69 3 -24 15 -56 27 -71 14 -17 21 -41 21 -68 0 -47 -42 -146 -62 -146 -15 0
-83 111 -90 145 -2 11 6 48 19 82 28 76 19 111 -35 145 -34 21 -49 23 -207 25
-110 1 -196 -3 -243 -12z"/>
</g>
</svg>
